<svg width="21" height="21" viewBox="0 0 21 21" fill="none" xmlns="http://www.w3.org/2000/svg">
<path fill-rule="evenodd" clip-rule="evenodd" d="M17.0625 11.6812C17.1938 12.4688 17.325 13.125 17.5875 13.9125L18.375 16.1438L17.7188 17.0625H13.125C13.125 17.7188 12.8625 18.375 12.3375 18.9C11.8125 19.425 11.1562 19.6875 10.5 19.6875C9.84375 19.6875 9.05625 19.425 8.6625 18.9C8.1375 18.375 7.875 17.7188 7.875 17.0625H3.28125L2.625 16.1438L3.4125 13.9125C3.675 12.8625 3.9375 11.8125 3.9375 10.7625V7.875C3.9375 6.95625 4.06875 6.0375 4.4625 5.25C4.85625 4.33125 5.38125 3.675 6.0375 3.01875C6.69375 2.3625 7.48125 1.96875 8.4 1.70625C9.05625 1.44375 9.84375 1.3125 10.5 1.3125C10.2375 1.70625 9.975 2.23125 9.7125 2.75625C9.45 2.75625 9.1875 2.75625 8.79375 3.01875C8.1375 3.15 7.48125 3.54375 6.95625 4.06875C6.43125 4.4625 5.90625 5.11875 5.64375 5.775C5.38125 6.43125 5.25 7.0875 5.25 7.875V10.7625C5.25 11.9437 4.9875 13.125 4.725 14.3062L4.2 15.75H16.8L16.275 14.3062C16.0453 13.6159 15.9154 12.8231 15.7986 12.1091L15.75 11.8125C16.275 11.8125 16.6687 11.8125 17.0625 11.6812ZM10.5 18.375C10.7625 18.375 11.1562 18.2437 11.4187 17.9812C11.6812 17.7188 11.8125 17.4562 11.8125 17.0625H9.1875C9.1875 17.4562 9.31875 17.7188 9.58125 17.9812C9.84375 18.2437 10.2375 18.375 10.5 18.375ZM19.6875 5.25C19.6875 6.29429 19.2727 7.29581 18.5342 8.03423C17.7958 8.77266 16.7943 9.1875 15.75 9.1875C14.7057 9.1875 13.7042 8.77266 12.9658 8.03423C12.2273 7.29581 11.8125 6.29429 11.8125 5.25C11.8125 4.20571 12.2273 3.20419 12.9658 2.46577C13.7042 1.72734 14.7057 1.3125 15.75 1.3125C16.7943 1.3125 17.7958 1.72734 18.5342 2.46577C19.2727 3.20419 19.6875 4.20571 19.6875 5.25Z" fill="black"/>
</svg>
