<svg width="21" height="21" viewBox="0 0 21 21" fill="none" xmlns="http://www.w3.org/2000/svg">
<path d="M17.5573 13.8771C17.2253 12.869 17.0556 11.8146 17.0546 10.7533V8.13096C17.0788 6.46932 16.4858 4.85777 15.3904 3.60808C14.2987 2.35643 12.7835 1.55165 11.1352 1.34796C10.2244 1.25346 9.29775 1.34796 8.41837 1.6459C7.539 1.92808 6.73837 2.39927 6.06375 3.02796C5.38576 3.64043 4.84537 4.38973 4.47825 5.2264C4.1093 6.06274 3.91673 6.96617 3.91256 7.88027V10.7678C3.91064 11.8247 3.74097 12.8747 3.40987 13.8784L2.625 16.2002L3.25369 17.0638H7.854C7.854 17.7542 8.13619 18.4288 8.62312 18.9171C9.10875 19.4027 9.78469 19.6862 10.4764 19.6862C11.1667 19.6862 11.8414 19.404 12.3283 18.9171C12.8152 18.4301 13.0987 17.7542 13.0987 17.0638H17.6991L18.3264 16.2002L17.5573 13.8771ZM11.4017 18.0075C11.2809 18.1307 11.137 18.2288 10.9782 18.2961C10.8194 18.3635 10.6489 18.3988 10.4764 18.4C10.3036 18.3988 10.1327 18.3633 9.97368 18.2958C9.81463 18.2282 9.67055 18.1298 9.54975 18.0062C9.42634 17.8856 9.32802 17.7417 9.26044 17.5829C9.19286 17.4241 9.15737 17.2535 9.156 17.0809H11.7797C11.7852 17.2531 11.7545 17.4245 11.6896 17.5841C11.6247 17.7437 11.5271 17.888 11.403 18.0075H11.4017ZM4.16325 15.7631L4.65019 14.301C5.02991 13.162 5.22617 11.9698 5.23162 10.7691V7.88027C5.23162 7.14133 5.38913 6.41946 5.68706 5.75927C5.985 5.08465 6.40894 4.48746 6.95887 4.00052C7.50881 3.49915 8.15325 3.12115 8.84362 2.90196C9.54975 2.66571 10.2874 2.58696 11.0092 2.66571C12.3323 2.83967 13.5453 3.49359 14.4178 4.50321C15.2906 5.51409 15.7598 6.8114 15.7356 8.14671V10.7848C15.7356 11.9779 15.9246 13.171 16.317 14.3168L16.8039 15.7776H4.16456V15.7618L4.16325 15.7631Z" fill="black"/>
</svg>
