<svg width="29" height="29" viewBox="0 0 29 29" fill="none" xmlns="http://www.w3.org/2000/svg">
<path d="M25.6855 13.2458C26.2583 13.995 26.2583 15.0064 25.6855 15.7543C23.8815 18.1094 19.5532 22.9584 14.5 22.9584C9.44674 22.9584 5.11849 18.1094 3.31445 15.7543C3.03579 15.3956 2.88452 14.9543 2.88452 14.5001C2.88452 14.0458 3.03579 13.6045 3.31445 13.2458C5.11849 10.8908 9.44674 6.04175 14.5 6.04175C19.5532 6.04175 23.8815 10.8908 25.6855 13.2458V13.2458Z" stroke="#969696" stroke-width="2" stroke-linecap="round" stroke-linejoin="round"/>
<path d="M14.5 18.125C16.502 18.125 18.125 16.502 18.125 14.5C18.125 12.498 16.502 10.875 14.5 10.875C12.498 10.875 10.875 12.498 10.875 14.5C10.875 16.502 12.498 18.125 14.5 18.125Z" stroke="#969696" stroke-width="2" stroke-linecap="round" stroke-linejoin="round"/>
</svg>
