<svg width="29" height="29" viewBox="0 0 29 29" fill="none" xmlns="http://www.w3.org/2000/svg">
<path d="M8.30477 20.6974C6.0754 19.1145 4.31123 17.0555 3.31435 15.7553C3.0356 15.3964 2.88428 14.9549 2.88428 14.5004C2.88428 14.046 3.0356 13.6045 3.31435 13.2456C5.1184 10.8905 9.44665 6.0415 14.4999 6.0415C16.7667 6.0415 18.8861 7.01663 20.6986 8.30592" stroke="#969696" stroke-width="2" stroke-linecap="round" stroke-linejoin="round"/>
<path d="M17.0736 11.9468C16.738 11.6056 16.3383 11.3343 15.8973 11.1484C15.4564 10.9625 14.983 10.8658 14.5044 10.8638C14.0259 10.8618 13.5517 10.9546 13.1092 11.1367C12.6668 11.3189 12.2647 11.5869 11.9263 11.9252C11.5879 12.2635 11.3198 12.6655 11.1375 13.108C10.9553 13.5504 10.8624 14.0246 10.8643 14.5031C10.8662 14.9816 10.9628 15.455 11.1486 15.896C11.3343 16.337 11.6056 16.7369 11.9466 17.0725" stroke="#969696" stroke-width="2" stroke-linecap="round" stroke-linejoin="round"/>
<path d="M4.83325 24.1666L24.1666 4.83325" stroke="#969696" stroke-width="2" stroke-linecap="round" stroke-linejoin="round"/>
<path d="M12.0833 22.6007C12.8677 22.8342 13.6815 22.9546 14.4999 22.9583C19.5532 22.9583 23.8814 18.1093 25.6855 15.7543C25.9641 15.395 26.1153 14.9532 26.1151 14.4986C26.1149 14.0439 25.9633 13.6023 25.6843 13.2433C25.0502 12.4162 24.3701 11.6255 23.647 10.875" stroke="#969696" stroke-width="2" stroke-linecap="round" stroke-linejoin="round"/>
</svg>
