<svg width="26" height="26" viewBox="0 0 26 26" fill="none" xmlns="http://www.w3.org/2000/svg">
<path d="M23.6227 10.8784H22.7501V10.8334H13.0001V15.1667H19.1225C18.2293 17.6893 15.8292 19.5001 13.0001 19.5001C9.41046 19.5001 6.50008 16.5897 6.50008 13.0001C6.50008 9.41046 9.41046 6.50008 13.0001 6.50008C14.657 6.50008 16.1645 7.12516 17.3123 8.14621L20.3765 5.082C18.4417 3.27879 15.8536 2.16675 13.0001 2.16675C7.01737 2.16675 2.16675 7.01737 2.16675 13.0001C2.16675 18.9828 7.01737 23.8334 13.0001 23.8334C18.9828 23.8334 23.8334 18.9828 23.8334 13.0001C23.8334 12.2737 23.7587 11.5647 23.6227 10.8784Z" fill="#FFC107"/>
<path d="M3.41577 7.95771L6.97506 10.568C7.93815 8.18358 10.2706 6.50008 13 6.50008C14.657 6.50008 16.1644 7.12516 17.3122 8.14621L20.3764 5.082C18.4416 3.27879 15.8535 2.16675 13 2.16675C8.83894 2.16675 5.23035 4.51596 3.41577 7.95771Z" fill="#FF3D00"/>
<path d="M13.0001 23.8335C15.7983 23.8335 18.3409 22.7626 20.2633 21.0211L16.9104 18.1839C15.7862 19.0388 14.4125 19.5012 13.0001 19.5001C10.1823 19.5001 7.7898 17.7034 6.88846 15.196L3.35571 17.9179C5.14863 21.4263 8.78971 23.8335 13.0001 23.8335Z" fill="#4CAF50"/>
<path d="M23.6226 10.8782H22.75V10.8333H13V15.1666H19.1225C18.6952 16.3671 17.9256 17.4162 16.9087 18.1842L16.9103 18.1831L20.2632 21.0204C20.026 21.236 23.8333 18.4166 23.8333 12.9999C23.8333 12.2735 23.7586 11.5645 23.6226 10.8782Z" fill="#1976D2"/>
</svg>
