<svg width="24" height="24" viewBox="0 0 24 24" fill="none" xmlns="http://www.w3.org/2000/svg">
<path fill-rule="evenodd" clip-rule="evenodd" d="M6 8C5.20435 8 4.44129 8.31607 3.87868 8.87868C3.31607 9.44129 3 10.2044 3 11V13C3 13.7956 3.31607 14.5587 3.87868 15.1213C4.44129 15.6839 5.20435 16 6 16C6.79565 16 7.55871 15.6839 8.12132 15.1213C8.68393 14.5587 9 13.7956 9 13H15V15H17V13H18V15H20V11H9C9 10.2044 8.68393 9.44129 8.12132 8.87868C7.55871 8.31607 6.79565 8 6 8ZM7 13V11C7 10.7348 6.89464 10.4804 6.70711 10.2929C6.51957 10.1054 6.26522 10 6 10C5.73478 10 5.48043 10.1054 5.29289 10.2929C5.10536 10.4804 5 10.7348 5 11V13C5 13.2652 5.10536 13.5196 5.29289 13.7071C5.48043 13.8946 5.73478 14 6 14C6.26522 14 6.51957 13.8946 6.70711 13.7071C6.89464 13.5196 7 13.2652 7 13Z" fill="#454751"/>
</svg>
