<svg width="20" height="20" viewBox="0 0 20 20" fill="none" xmlns="http://www.w3.org/2000/svg">
<path d="M15.5642 16.3392L10.8017 11.5759C9.77981 12.3023 8.52234 12.6184 7.27844 12.4614C6.03455 12.3044 4.89503 11.6859 4.08571 10.7283C3.2764 9.77073 2.85637 8.54406 2.90887 7.2914C2.96137 6.03874 3.48256 4.85151 4.36915 3.96502C5.25551 3.07814 6.44273 2.55666 7.69548 2.50394C8.94823 2.45121 10.1751 2.8711 11.1328 3.68036C12.0905 4.48963 12.7093 5.6292 12.8663 6.87318C13.0234 8.11717 12.7074 9.37476 11.9808 10.3967L16.7433 15.16L15.565 16.3384L15.5642 16.3392ZM7.90415 4.16669C7.13754 4.16651 6.39429 4.43058 5.79964 4.91441C5.20499 5.39824 4.79528 6.07225 4.63955 6.82288C4.48382 7.57351 4.59158 8.35488 4.94468 9.03534C5.29778 9.71579 5.87463 10.2537 6.57805 10.5586C7.28147 10.8634 8.06845 10.9164 8.8064 10.7087C9.54435 10.501 10.1882 10.0453 10.6294 9.4184C11.0706 8.79146 11.2822 8.03161 11.2285 7.26687C11.1749 6.50214 10.8594 5.77925 10.335 5.22002L10.8392 5.72002L10.2708 5.15335L10.2608 5.14335C9.95213 4.83276 9.58489 4.58651 9.18036 4.41886C8.77582 4.25121 8.34205 4.1655 7.90415 4.16669Z" fill="#9B8F8E"/>
</svg>
