<svg width="20" height="20" viewBox="0 0 20 20" fill="none" xmlns="http://www.w3.org/2000/svg">
<path d="M15.564 16.3392L10.8015 11.5759C9.77963 12.3023 8.52215 12.6184 7.27826 12.4614C6.03437 12.3044 4.89484 11.6859 4.08553 10.7283C3.27622 9.77073 2.85619 8.54406 2.90869 7.2914C2.96118 6.03874 3.48238 4.85151 4.36897 3.96502C5.25532 3.07814 6.44254 2.55666 7.6953 2.50394C8.94805 2.45121 10.1749 2.8711 11.1326 3.68036C12.0904 4.48963 12.7091 5.6292 12.8662 6.87318C13.0232 8.11717 12.7072 9.37476 11.9806 10.3967L16.7431 15.16L15.5648 16.3384L15.564 16.3392ZM7.90397 4.16669C7.13735 4.16651 6.39411 4.43058 5.79945 4.91441C5.2048 5.39824 4.7951 6.07225 4.63937 6.82288C4.48363 7.57351 4.5914 8.35488 4.9445 9.03534C5.2976 9.71579 5.87445 10.2537 6.57787 10.5586C7.28128 10.8634 8.06826 10.9164 8.80621 10.7087C9.54416 10.501 10.188 10.0453 10.6292 9.4184C11.0704 8.79146 11.282 8.03161 11.2284 7.26687C11.1747 6.50214 10.8592 5.77925 10.3348 5.22002L10.839 5.72002L10.2706 5.15335L10.2606 5.14335C9.95195 4.83276 9.5847 4.58651 9.18017 4.41886C8.77564 4.25121 8.34186 4.1655 7.90397 4.16669Z" fill="#35384A"/>
</svg>
