<svg width="17" height="17" viewBox="0 0 17 17" fill="none" xmlns="http://www.w3.org/2000/svg">
<path d="M15.076 5.86192L10.8609 5.24932L8.9766 1.4293C8.92513 1.32471 8.84046 1.24005 8.73588 1.18858C8.47357 1.05909 8.15482 1.167 8.02367 1.4293L6.13939 5.24932L1.92425 5.86192C1.80804 5.87852 1.70179 5.93331 1.62044 6.01631C1.5221 6.1174 1.46791 6.25339 1.46977 6.3944C1.47164 6.53542 1.52942 6.66992 1.6304 6.76837L4.68011 9.7417L3.9596 13.9402C3.94271 14.0379 3.95352 14.1384 3.9908 14.2302C4.02809 14.322 4.09036 14.4016 4.17056 14.4598C4.25075 14.5181 4.34567 14.5527 4.44454 14.5597C4.5434 14.5668 4.64227 14.546 4.72992 14.4997L8.50013 12.5175L12.2703 14.4997C12.3733 14.5545 12.4928 14.5728 12.6074 14.5528C12.8962 14.503 13.0905 14.2291 13.0407 13.9402L12.3202 9.7417L15.3699 6.76837C15.4529 6.68702 15.5077 6.58077 15.5243 6.46456C15.5691 6.17403 15.3665 5.90508 15.076 5.86192Z" fill="black"/>
</svg>
