<svg width="23" height="23" viewBox="0 0 23 23" fill="none" xmlns="http://www.w3.org/2000/svg">
<path d="M10.0625 14.5042L7.48219 11.9239L6.46875 12.9374L10.0625 16.5311L16.5312 10.0624L15.5178 9.04175L10.0625 14.5042Z" fill="#35384A"/>
<path d="M17.9688 3.59375H15.8125V2.875C15.8125 2.49375 15.661 2.12812 15.3915 1.85853C15.1219 1.58895 14.7562 1.4375 14.375 1.4375H8.625C8.24375 1.4375 7.87812 1.58895 7.60853 1.85853C7.33895 2.12812 7.1875 2.49375 7.1875 2.875V3.59375H5.03125C4.65 3.59375 4.28437 3.7452 4.01478 4.01478C3.7452 4.28437 3.59375 4.65 3.59375 5.03125V20.125C3.59375 20.5062 3.7452 20.8719 4.01478 21.1415C4.28437 21.411 4.65 21.5625 5.03125 21.5625H17.9688C18.35 21.5625 18.7156 21.411 18.9852 21.1415C19.2548 20.8719 19.4062 20.5062 19.4062 20.125V5.03125C19.4062 4.65 19.2548 4.28437 18.9852 4.01478C18.7156 3.7452 18.35 3.59375 17.9688 3.59375ZM8.625 2.875H14.375V5.75H8.625V2.875ZM17.9688 20.125H5.03125V5.03125H7.1875V7.1875H15.8125V5.03125H17.9688V20.125Z" fill="#35384A"/>
</svg>
